<mxfile host="app.diagrams.net" modified="2023-02-12T14:05:52.934Z" agent="5.0 (Windows NT 10.0; Win64; x64) AppleWebKit/537.36 (KHTML, like Gecko) Chrome/110.0.0.0 Safari/537.36" etag="QVIWB04KOKWa_omeosVH" version="20.8.20" type="github">
  <diagram id="4uwHfOAWRuxP_S3S2kzK" name="Pagina-1">
    <mxGraphModel dx="1050" dy="573" grid="1" gridSize="10" guides="1" tooltips="1" connect="1" arrows="1" fold="1" page="1" pageScale="1" pageWidth="827" pageHeight="1169" math="0" shadow="0">
      <root>
        <mxCell id="0" />
        <mxCell id="1" parent="0" />
        <mxCell id="P5PyDWJyhYaWLaZMwWLl-9" value="" style="rounded=0;whiteSpace=wrap;html=1;fontSize=18;strokeColor=#6c8ebf;fillColor=#dae8fc;" parent="1" vertex="1">
          <mxGeometry x="40" y="40" width="750" height="540" as="geometry" />
        </mxCell>
        <mxCell id="P5PyDWJyhYaWLaZMwWLl-1" value="&lt;font style=&quot;font-size: 18px;&quot;&gt;MVN&lt;/font&gt;" style="rounded=0;whiteSpace=wrap;html=1;strokeColor=#d79b00;fillColor=#ffe6cc;" parent="1" vertex="1">
          <mxGeometry x="350" y="260" width="130" height="60" as="geometry" />
        </mxCell>
        <mxCell id="P5PyDWJyhYaWLaZMwWLl-2" value="Servizio&lt;br&gt;chat" style="rounded=0;whiteSpace=wrap;html=1;fontSize=18;" parent="1" vertex="1">
          <mxGeometry x="80" y="260" width="120" height="60" as="geometry" />
        </mxCell>
        <mxCell id="P5PyDWJyhYaWLaZMwWLl-5" value="PayPal" style="rounded=0;whiteSpace=wrap;html=1;fontSize=18;" parent="1" vertex="1">
          <mxGeometry x="355" y="430" width="120" height="60" as="geometry" />
        </mxCell>
        <mxCell id="P5PyDWJyhYaWLaZMwWLl-7" value="MongoDB" style="rounded=0;whiteSpace=wrap;html=1;fontSize=18;" parent="1" vertex="1">
          <mxGeometry x="630" y="260" width="120" height="60" as="geometry" />
        </mxCell>
        <mxCell id="P5PyDWJyhYaWLaZMwWLl-8" value="" style="endArrow=classic;startArrow=none;html=1;rounded=0;fontSize=18;exitX=1;exitY=0.5;exitDx=0;exitDy=0;entryX=0;entryY=0.5;entryDx=0;entryDy=0;startFill=0;" parent="1" edge="1">
          <mxGeometry width="50" height="50" relative="1" as="geometry">
            <mxPoint x="480" y="280" as="sourcePoint" />
            <mxPoint x="630" y="280" as="targetPoint" />
          </mxGeometry>
        </mxCell>
        <mxCell id="w_VEqh341gVKfksLG6Xh-1" value="" style="endArrow=none;startArrow=classic;html=1;rounded=0;fontSize=18;exitX=1;exitY=0.5;exitDx=0;exitDy=0;entryX=0;entryY=0.5;entryDx=0;entryDy=0;startFill=1;endFill=0;" edge="1" parent="1">
          <mxGeometry width="50" height="50" relative="1" as="geometry">
            <mxPoint x="480" y="300" as="sourcePoint" />
            <mxPoint x="630" y="300" as="targetPoint" />
          </mxGeometry>
        </mxCell>
        <mxCell id="w_VEqh341gVKfksLG6Xh-3" value="" style="endArrow=none;startArrow=classic;html=1;rounded=0;fontSize=18;exitX=1;exitY=0.5;exitDx=0;exitDy=0;entryX=0;entryY=0.5;entryDx=0;entryDy=0;startFill=1;endFill=0;" edge="1" parent="1">
          <mxGeometry width="50" height="50" relative="1" as="geometry">
            <mxPoint x="200" y="289.5" as="sourcePoint" />
            <mxPoint x="350" y="289.5" as="targetPoint" />
          </mxGeometry>
        </mxCell>
        <mxCell id="w_VEqh341gVKfksLG6Xh-4" value="" style="endArrow=classic;html=1;rounded=0;exitX=0.5;exitY=1;exitDx=0;exitDy=0;entryX=0.5;entryY=0;entryDx=0;entryDy=0;" edge="1" parent="1" source="P5PyDWJyhYaWLaZMwWLl-1" target="P5PyDWJyhYaWLaZMwWLl-5">
          <mxGeometry width="50" height="50" relative="1" as="geometry">
            <mxPoint x="390" y="320" as="sourcePoint" />
            <mxPoint x="440" y="270" as="targetPoint" />
          </mxGeometry>
        </mxCell>
        <mxCell id="w_VEqh341gVKfksLG6Xh-5" value="Gmail" style="rounded=0;whiteSpace=wrap;html=1;fontSize=18;" vertex="1" parent="1">
          <mxGeometry x="355" y="90" width="120" height="60" as="geometry" />
        </mxCell>
        <mxCell id="w_VEqh341gVKfksLG6Xh-6" value="" style="endArrow=none;html=1;rounded=0;exitX=0.5;exitY=1;exitDx=0;exitDy=0;entryX=0.5;entryY=0;entryDx=0;entryDy=0;startArrow=classic;startFill=1;endFill=0;" edge="1" parent="1">
          <mxGeometry width="50" height="50" relative="1" as="geometry">
            <mxPoint x="414.5" y="150" as="sourcePoint" />
            <mxPoint x="414.5" y="260" as="targetPoint" />
          </mxGeometry>
        </mxCell>
      </root>
    </mxGraphModel>
  </diagram>
</mxfile>
